<svg width="20" height="20" viewBox="0 0 20 20" fill="none" xmlns="http://www.w3.org/2000/svg">
<path fill-rule="evenodd" clip-rule="evenodd" d="M10 0C4.48438 0 0 4.48438 0 10C0 15.5156 4.48438 20 10 20C15.5156 20 20 15.5156 20 10C20 4.48438 15.5156 0 10 0Z" fill="#4BAE4F"/>
<path d="M4.53125 10.9219V9.07422C4.53125 8.88672 4.68359 8.73047 4.875 8.73047H8.73828V4.87109C8.73828 4.68359 8.89062 4.52734 9.08203 4.52734H10.9297C11.1172 4.52734 11.2695 4.67969 11.2695 4.87109V8.73438H15.1289C15.3164 8.73438 15.4727 8.88672 15.4727 9.07812V10.9258C15.4727 11.1133 15.3203 11.2656 15.1289 11.2656H11.2656V15.125C11.2656 15.3125 11.1133 15.4688 10.9258 15.4688H9.07812C8.89062 15.4688 8.73438 15.3164 8.73438 15.125V11.2617H4.875C4.68359 11.2656 4.53125 11.1094 4.53125 10.9219Z" fill="white"/>
</svg>
